<svg width="756" height="400" viewBox="0 0 756 400" fill="none" xmlns="http://www.w3.org/2000/svg">
<path d="M172.21 348.285L186.458 248.044H232.593L230.557 261.952H204.946L201.214 288.751H222.925L220.72 304.186H199.009L194.769 334.716H220.381L218.345 348.285H172.21ZM256.332 349.473C249.547 349.473 244.007 348.625 239.71 346.929C235.413 345.232 232.473 342.236 230.89 337.939C229.307 333.642 229.024 327.593 230.042 319.79L230.89 313.854H251.413L250.395 321.487C249.83 325.67 249.717 328.893 250.056 331.155C250.395 333.303 251.13 334.829 252.261 335.734C253.505 336.526 254.975 336.921 256.671 336.921C259.159 336.921 261.251 336.017 262.947 334.208C264.756 332.285 266.056 328.61 266.848 323.183C267.526 318.999 267.3 315.889 266.17 313.854C265.152 311.706 263.343 310.009 260.742 308.766C258.141 307.409 254.692 305.769 250.395 303.847C246.664 302.151 243.667 300.115 241.406 297.741C239.258 295.366 237.788 292.37 236.996 288.751C236.318 285.133 236.318 280.723 236.996 275.521C237.901 268.963 239.54 263.648 241.915 259.578C244.289 255.507 247.625 252.567 251.922 250.758C256.332 248.836 262.042 247.874 269.053 247.874C278.212 247.874 284.884 249.853 289.067 253.811C293.364 257.655 294.947 263.479 293.816 271.281L292.12 283.324C288.841 283.324 285.562 283.324 282.283 283.324C279.004 283.324 275.724 283.324 272.445 283.324L273.463 277.217C274.141 272.129 274.028 268.567 273.124 266.532C272.219 264.496 270.24 263.479 267.187 263.479C264.134 263.479 261.873 264.383 260.403 266.193C259.046 268.002 258.028 270.942 257.35 275.013C256.897 278.405 257.18 281.119 258.198 283.154C259.215 285.189 260.742 286.829 262.777 288.073C264.926 289.203 267.583 290.391 270.749 291.635C275.498 293.557 279.286 295.536 282.113 297.571C285.053 299.493 286.975 302.207 287.88 305.713C288.898 309.105 288.954 314.024 288.05 320.469C287.032 327.706 284.997 333.473 281.944 337.769C278.891 341.953 275.159 344.95 270.749 346.759C266.339 348.568 261.533 349.473 256.332 349.473ZM305.287 348.285L317.499 261.952H301.894L303.93 248.044H354.814L352.778 261.952H337.174L324.962 348.285H305.287ZM349.443 348.285L363.691 248.044H383.366L369.118 348.285H349.443ZM383.564 348.285L397.812 248.044H422.406L426.985 312.836L450.053 248.044H474.477L460.23 348.285H442.929L453.445 273.316L428.512 348.285H415.113L411.381 273.316L400.865 348.285H383.564ZM501.634 350.321C495.98 350.321 491.118 349.642 487.047 348.285C482.976 347.042 480.036 344.384 478.227 340.314C476.418 336.13 476.079 329.967 477.21 321.826L484.673 269.246C485.577 263.253 487.443 258.617 490.27 255.337C493.097 252.058 496.772 249.797 501.295 248.553C505.818 247.196 510.849 246.517 516.39 246.517C522.044 246.517 526.906 247.196 530.977 248.553C535.161 249.91 538.214 252.228 540.136 255.507C542.171 258.786 542.793 263.366 542.002 269.246L534.539 321.656C533.408 329.911 531.316 336.13 528.263 340.314C525.21 344.384 521.422 347.042 516.899 348.285C512.489 349.642 507.401 350.321 501.634 350.321ZM503.33 338.787C504.913 338.787 506.44 338.561 507.91 338.109C509.38 337.543 510.623 336.582 511.641 335.225C512.772 333.755 513.507 331.72 513.846 329.119L522.327 268.398C522.779 265.684 522.609 263.648 521.818 262.292C521.139 260.822 520.122 259.86 518.765 259.408C517.521 258.956 516.108 258.73 514.524 258.73C512.941 258.73 511.415 258.956 509.945 259.408C508.475 259.86 507.231 260.822 506.213 262.292C505.196 263.648 504.461 265.684 504.008 268.398L495.528 329.119C495.189 331.72 495.358 333.755 496.037 335.225C496.715 336.582 497.676 337.543 498.92 338.109C500.277 338.561 501.747 338.787 503.33 338.787ZM543.902 348.285L558.15 248.044H594.786C601.457 248.044 606.263 249.571 609.203 252.624C612.256 255.564 613.33 259.691 612.426 265.005L610.39 280.61C609.599 285.924 607.507 290.391 604.115 294.009C600.836 297.628 596.199 299.72 590.206 300.285C593.938 300.85 596.482 302.151 597.839 304.186C599.196 306.108 600.157 309.274 600.722 313.684L605.302 348.285H583.422L581.047 315.041C580.934 313.232 580.708 311.592 580.369 310.122C580.03 308.652 579.521 307.522 578.842 306.73C578.277 305.826 577.429 305.373 576.298 305.373H570.531L564.425 348.285H543.902ZM572.397 291.804H580.538C583.478 291.804 585.797 290.956 587.493 289.26C589.189 287.564 590.32 284.68 590.885 280.61L592.581 268.567C593.146 264.949 592.864 262.405 591.733 260.935C590.602 259.465 588.963 258.73 586.814 258.73H576.977L572.397 291.804ZM608.681 348.285L640.738 248.044H669.063L672.456 348.285H650.406L650.067 329.798H635.48L629.883 348.285H608.681ZM637.006 319.96H651.084L651.932 265.514L637.006 319.96Z" fill="#612916"/>
<path d="M220.5 215.487L427.216 8.77114" stroke="#612916" stroke-width="17.5419" stroke-linecap="round"/>
<path d="M633.899 215.487L427.183 8.77114" stroke="#612916" stroke-width="17.5419" stroke-linecap="round"/>
<path d="M8.771 347.329L347.329 8.7709" stroke="#9D8062" stroke-width="17.5419" stroke-linecap="round"/>
</svg>
