<svg width="339" height="1527" viewBox="0 0 339 1527" fill="none" xmlns="http://www.w3.org/2000/svg">
<path d="M169.5 1524.48C374.68 1499.11 374.68 1473.75 169.5 1448.38C-29.8508 1423.38 -29.8508 1398.01 169.5 1372.28C368.851 1346.91 368.851 1321.55 169.5 1296.18C27.2731 1274.45 27.2731 1249.08 169.5 1220.08C311.727 1194.71 311.727 1169.35 169.5 1143.98C-53.1667 1111.44 -53.1667 1086.07 169.5 1067.88C392.167 1042.51 392.167 1017.15 169.5 991.782C-48.5035 966.681 -48.5035 941.314 169.5 915.682C387.503 890.315 387.503 864.948 169.5 839.582C-41.5087 814.622 -41.5087 789.255 169.5 763.482" stroke="#612916" stroke-width="5"/>
<path d="M169.5 763.482C374.68 738.115 374.68 712.748 169.5 687.382C-29.8508 662.375 -29.8508 637.009 169.5 611.282C368.851 585.915 368.851 560.548 169.5 535.182C27.2731 513.449 27.2731 488.083 169.5 459.082C311.727 433.715 311.727 408.348 169.5 382.982C-53.1667 350.442 -53.1667 325.075 169.5 306.882C392.167 281.515 392.167 256.148 169.5 230.782C-48.5035 205.681 -48.5035 180.314 169.5 154.682C387.503 129.315 387.503 103.948 169.5 78.5816C-41.5087 53.6219 -41.5087 28.2552 169.5 2.48159" stroke="#612916" stroke-width="5"/>
</svg>
