<svg width="1946" height="732" viewBox="0 0 1946 732" fill="none" xmlns="http://www.w3.org/2000/svg">
<g clip-path="url(#clip0_78_336)">
<path d="M1144.24 132.853L1268.88 229.354L1225.54 291.074L1204.46 273.813V367H1946V732H1288.77C1288.77 693.686 1244.92 662.958 1157.2 639.683C1120.16 629.744 1038.86 615.36 913.309 596.399C825.597 583.062 781.738 569.725 781.738 556.126C781.738 534.158 835.545 516.374 943.157 502.515H839.211C731.599 512.059 677.793 531.151 677.793 560.049C677.793 585.808 708.689 606.992 770.612 623.599C827.953 636.936 885.163 650.143 942.503 663.48C1004.3 681.133 1035.32 703.886 1035.32 732H0V367H739.979V273.813L718.9 291.074L675.568 229.354L972.745 0L1062.81 69.3027V0H1144.24V132.853ZM1074.73 96.8945L972.744 16.7373L697.691 230.531L722.697 266.229L755.688 238.639V498.723H839.211V286.497H943.157V498.723H1188.62V238.639L1221.61 266.229L1246.62 230.531L1131.15 140.176V11.7695H1074.73V96.8945ZM1140.31 413.729H1003.77V286.497H1140.31V413.729Z" fill="#957F66"/>
</g>
<defs>
<clipPath id="clip0_78_336">
<rect width="1946" height="732" fill="white"/>
</clipPath>
</defs>
</svg>
