<svg width="1120" height="1269" viewBox="0 0 1120 1269" fill="none" xmlns="http://www.w3.org/2000/svg">
<path d="M-467.04 76.7075C-605.785 486.536 -530.798 530.32 -242.08 208.06C39.5002 -104.423 114.487 -60.6389 -17.1209 339.413C-149.794 738.842 -74.8071 782.626 207.839 470.765C420.236 254.541 495.222 298.325 432.798 602.118C359.63 899.637 434.617 943.421 657.758 733.47C985.896 392.395 1060.88 436.179 882.717 864.823C725.757 1305.85 800.743 1349.63 1107.68 996.175C1408.97 650.579 1483.95 694.363 1332.64 1127.53C1180.53 1560.23 1255.52 1604.02 1557.6 1258.88C1851.18 925.519 1926.17 969.303 1782.55 1390.23" stroke="#612916" stroke-width="5"/>
</svg>
