<svg width="2890" height="250" viewBox="0 0 2890 250" fill="none" xmlns="http://www.w3.org/2000/svg">
<path d="M4.75439 125C52.7544 -22.4346 100.754 -22.4346 148.754 125C196.073 268.246 244.073 268.246 292.754 125C340.754 -18.2461 388.754 -18.2461 436.754 125C477.877 227.199 525.877 227.199 580.754 125C628.754 22.801 676.754 22.801 724.754 125C786.328 285 834.328 285 868.754 125C916.754 -35 964.754 -35 1012.75 125C1060.25 281.649 1108.25 281.649 1156.75 125C1204.75 -31.6492 1252.75 -31.6492 1300.75 125C1347.98 276.623 1395.98 276.623 1444.75 125" stroke="#FBFBFB" stroke-width="10"/>
<path d="M1444.75 125C1492.75 -22.4346 1540.75 -22.4346 1588.75 125C1636.07 268.246 1684.07 268.246 1732.75 125C1780.75 -18.2461 1828.75 -18.2461 1876.75 125C1917.88 227.199 1965.88 227.199 2020.75 125C2068.75 22.801 2116.75 22.801 2164.75 125C2226.33 285 2274.33 285 2308.75 125C2356.75 -35 2404.75 -35 2452.75 125C2500.25 281.649 2548.25 281.649 2596.75 125C2644.75 -31.6492 2692.75 -31.6492 2740.75 125C2787.98 276.623 2835.98 276.623 2884.75 125" stroke="#FBFBFB" stroke-width="10"/>
</svg>
