<svg width="250" height="2890" viewBox="0 0 250 2890" fill="none" xmlns="http://www.w3.org/2000/svg">
<path d="M125 2884.76C-22.4346 2836.76 -22.4346 2788.76 125 2740.76C268.246 2693.44 268.246 2645.44 125 2596.76C-18.2461 2548.76 -18.2461 2500.76 125 2452.76C227.199 2411.64 227.199 2363.64 125 2308.76C22.801 2260.76 22.801 2212.76 125 2164.76C285 2103.19 285 2055.19 125 2020.76C-35 1972.76 -35 1924.76 125 1876.76C281.649 1829.26 281.649 1781.26 125 1732.76C-31.6492 1684.76 -31.6492 1636.76 125 1588.76C276.623 1541.53 276.623 1493.53 125 1444.76" stroke="#FBFBFB" stroke-width="10"/>
<path d="M125 1444.76C-22.4346 1396.76 -22.4346 1348.76 125 1300.76C268.246 1253.44 268.246 1205.44 125 1156.76C-18.2461 1108.76 -18.2461 1060.76 125 1012.76C227.199 971.637 227.199 923.637 125 868.76C22.801 820.76 22.801 772.76 125 724.76C285 663.186 285 615.186 125 580.76C-35 532.76 -35 484.76 125 436.76C281.649 389.263 281.649 341.263 125 292.76C-31.6492 244.76 -31.6492 196.76 125 148.76C276.623 101.53 276.623 53.5299 125 4.75983" stroke="#FBFBFB" stroke-width="10"/>
</svg>
